<svg xmlns="http://www.w3.org/2000/svg" viewBox="0 0 600 600">
<rect width="600" height="600" fill="#071421"/>
<!-- land -->
<polygon points="48,48 552,48 552,552 100,552 60,500 48,400" fill="#1b2d3f"/>
<!-- dragonspiral tower zone -->
<ellipse cx="168" cy="180" rx="28" ry="26" fill="#182535"/>
<!-- twist mountain zone -->
<ellipse cx="192" cy="228" rx="30" ry="22" fill="#182535"/>
<!-- giant chasm -->
<ellipse cx="384" cy="240" rx="24" ry="20" fill="#182535"/>
<!-- twist mountain peak -->
<g fill="#1e3548"><polygon points="176,238 192,216 208,238"/></g>
<!-- dragonspiral peaks -->
<g fill="#1e3548"><polygon points="154,190 168,168 182,190"/></g>
<!-- pinwheel forest -->
<ellipse cx="162" cy="312" rx="32" ry="36" fill="#14251c"/>
<!-- lostlorn forest -->
<ellipse cx="336" cy="378" rx="24" ry="20" fill="#14251c"/>
<!-- forest circles pinwheel -->
<g fill="#132219"><circle cx="148" cy="298" r="9"/><circle cx="164" cy="292" r="8"/><circle cx="152" cy="316" r="9"/><circle cx="168" cy="322" r="8"/><circle cx="148" cy="334" r="7"/><circle cx="162" cy="344" r="8"/></g>
<!-- village bridge -->
<line x1="342" y1="192" x2="420" y2="192" stroke="#2a3d50" stroke-width="4"/>
<!-- routes main loop -->
<g stroke="#2d4a63" stroke-width="1.6" fill="none" stroke-linecap="round" stroke-linejoin="round">
<!-- south/start -->
<polyline points="390,498 318,468 210,420"/>
<polyline points="210,420 168,372 168,312"/>
<polyline points="168,312 168,228 168,180"/>
<polyline points="210,420 258,432 258,468 318,468"/>
<polyline points="258,432 330,432 330,390 330,360"/>
<polyline points="330,360 258,378 210,420"/>
<polyline points="330,360 330,300 258,282 210,270 210,228 168,228"/>
<polyline points="210,228 258,216 330,216 396,162 396,108"/>
<polyline points="330,216 330,300"/>
<polyline points="330,216 390,216 450,216 450,168 396,162"/>
<polyline points="450,216 450,264 402,288 402,330 450,360 450,300"/>
<polyline points="402,330 450,360 450,432 390,498"/>
<polyline points="450,432 500,432 500,360 450,300"/>
<polyline points="500,360 500,264 450,264"/>
<!-- pokemon village -->
<polyline points="396,108 360,80 300,80"/>
</g>
<!-- route numbers -->
<g fill="#36556e" font-family="system-ui,sans-serif" font-size="6.5" font-weight="600">
<text x="352" y="492">1</text><text x="256" y="450">2</text><text x="180" y="400">3</text>
<text x="265" y="424">4</text><text x="298" y="398">5</text><text x="240" y="360">6</text>
<text x="194" y="256">7</text><text x="186" y="290">8</text><text x="348" y="264">9</text>
<text x="400" y="134">10</text><text x="414" y="200">11</text><text x="414" y="290">12</text>
<text x="348" y="352">13</text><text x="460" y="300">14</text><text x="460" y="400">15</text>
<text x="464" y="200">16</text><text x="334" y="498">17</text><text x="394" y="498">18</text>
</g>
<!-- cities -->
<g fill="#3a6285" stroke="#5a92b8" stroke-width="1">
<circle cx="390" cy="498" r="5.5"/><circle cx="318" cy="468" r="5.5"/>
<circle cx="210" cy="420" r="6.5"/><circle cx="168" cy="372" r="7"/>
<circle cx="258" cy="432" r="6.5"/><circle cx="330" cy="360" r="6.5"/>
<circle cx="258" cy="282" r="6.5"/><circle cx="210" cy="228" r="6.5"/>
<circle cx="168" cy="180" r="6.5"/><circle cx="330" cy="192" r="6.5"/>
<circle cx="402" cy="288" r="6"/><circle cx="450" cy="216" r="6"/>
<circle cx="500" cy="360" r="5.5"/><circle cx="450" cy="432" r="6"/>
</g>
<!-- city labels -->
<g fill="#6a9cba" font-family="system-ui,sans-serif" font-size="7" font-weight="500">
<text x="400" y="501">Pv. Nueva Corteza</text><text x="270" y="462">Pv. Acumulo</text>
<text x="160" y="413">Cd. Striaton</text><text x="118" y="368">Cd. Nacrene</text>
<text x="268" y="435">Cd. Castelia</text><text x="340" y="354">Cd. Nimbasa</text>
<text x="268" y="276">Cd. Driftveil</text><text x="162" y="222">Cd. Mistralton</text>
<text x="124" y="176">Cd. Icirrus</text><text x="340" y="186">Cd. Opelucid</text>
<text x="360" y="284">Pv. Lacunosa</text><text x="460" y="210">Pv. Undella</text>
<text x="508" y="354">Cd. Virbank</text><text x="458" y="428">Pv. Humilau</text>
</g>
<text x="12" y="590" fill="#2a4a65" font-family="system-ui,sans-serif" font-size="14" font-weight="700" letter-spacing="3">UNOVA</text>
</svg>
